<svg xmlns="http://www.w3.org/2000/svg" width="1920" height="1304" viewBox="0 0 1920 1304"><title>IncludeFixer and orchestration stay in the core</title><desc>IncludeFixer stays in ParsedAST; colored lines show reindentation and rewrites within that same file. Clang's typo-correction severity adjustment and include fixes remain in ParsedAST. FeatureModule.h and Preamble.cpp are unchanged by this commit; the lifecycle interface was already on main.</desc><rect x="0" y="0" width="1920" height="1304" rx="0" fill="#f4f3ef" /><text x="48" y="42" font-family="Arial,Helvetica,sans-serif" font-size="14" fill="#586d7a" letter-spacing="2">CLANGD / CLANG-TIDY MIGRATION     15 / 16</text><text x="48" y="94" font-family="Arial,Helvetica,sans-serif" font-size="34" fill="#142c3e" font-weight="700">IncludeFixer and orchestration stay in the core</text><text x="48" y="133" font-family="Arial,Helvetica,sans-serif" font-size="19" fill="#496272" >IncludeFixer stays in ParsedAST; colored lines show reindentation and rewrites within that same file.</text><rect x="48" y="178" width="158" height="29" rx="14" fill="#e3e8e5" /><text x="64" y="198" font-family="Arial,Helvetica,sans-serif" font-size="13" fill="#294b48" font-weight="700" letter-spacing="1">STAYS IN PLACE</text><rect x="300" y="185" width="14" height="14" rx="2" fill="#eac17a"/><text x="324" y="198" font-family="Arial,Helvetica,sans-serif" font-size="14" fill="#496272">Removed here (diff)</text><rect x="560" y="185" width="14" height="14" rx="2" fill="#68d6bd"/><text x="584" y="198" font-family="Arial,Helvetica,sans-serif" font-size="14" fill="#496272">Added here (diff)</text><rect x="810" y="185" width="14" height="14" rx="2" fill="#718397"/><text x="834" y="198" font-family="Arial,Helvetica,sans-serif" font-size="14" fill="#496272">Unchanged context</text><text x="1115" y="198" font-family="Arial,Helvetica,sans-serif" font-size="14" fill="#496272">Arrows map responsibilities</text><rect x="48" y="225" width="852" height="905" rx="12" fill="#142131" /><rect x="48" y="225" width="852" height="40" rx="12" fill="#203044" /><rect x="48" y="248" width="852" height="17" rx="0" fill="#203044" /><text x="68" y="251" font-family="Arial,Helvetica,sans-serif" font-size="13" fill="#eac17a" font-weight="700" letter-spacing="1.3">BEFORE  /  18f9e623e4c8</text><text x="67" y="301" font-family="Arial,Helvetica,sans-serif" font-size="15" fill="#c6d5e2" font-weight="600">ParsedAST.cpp</text><rect x="60" y="314" width="828" height="22" rx="0" fill="#403627" /><rect x="60" y="314" width="3" height="22" rx="0" fill="#eac17a" /><text x="75" y="330" font-family="Menlo,Consolas,monospace" font-size="11" fill="#eac17a" text-anchor="middle">−</text><text x="105" y="330" text-anchor="end" font-family="Menlo,Consolas,monospace" font-size="12" fill="#8093a5">625</text><text x="121" y="330" xml:space="preserve" font-family="Menlo,Consolas,monospace" font-size="15.00" fill="#e4edf7">    <tspan fill="#98bfff">for</tspan> (<tspan fill="#98bfff">auto</tspan> ID : {diag::ext_implicit_function_decl_c99,</text><rect x="60" y="336" width="828" height="22" rx="0" fill="#403627" /><rect x="60" y="336" width="3" height="22" rx="0" fill="#eac17a" /><text x="75" y="352" font-family="Menlo,Consolas,monospace" font-size="11" fill="#eac17a" text-anchor="middle">−</text><text x="105" y="352" text-anchor="end" font-family="Menlo,Consolas,monospace" font-size="12" fill="#8093a5">626</text><text x="121" y="352" xml:space="preserve" font-family="Menlo,Consolas,monospace" font-size="15.00" fill="#e4edf7">                    diag::ext_implicit_lib_function_decl,</text><rect x="60" y="358" width="828" height="22" rx="0" fill="#403627" /><rect x="60" y="358" width="3" height="22" rx="0" fill="#eac17a" /><text x="75" y="374" font-family="Menlo,Consolas,monospace" font-size="11" fill="#eac17a" text-anchor="middle">−</text><text x="105" y="374" text-anchor="end" font-family="Menlo,Consolas,monospace" font-size="12" fill="#8093a5">627</text><text x="121" y="374" xml:space="preserve" font-family="Menlo,Consolas,monospace" font-size="15.00" fill="#e4edf7">                    diag::ext_implicit_lib_function_decl_c99,</text><rect x="60" y="380" width="828" height="22" rx="0" fill="#403627" /><rect x="60" y="380" width="3" height="22" rx="0" fill="#eac17a" /><text x="75" y="396" font-family="Menlo,Consolas,monospace" font-size="11" fill="#eac17a" text-anchor="middle">−</text><text x="105" y="396" text-anchor="end" font-family="Menlo,Consolas,monospace" font-size="12" fill="#8093a5">628</text><text x="121" y="396" xml:space="preserve" font-family="Menlo,Consolas,monospace" font-size="15.00" fill="#e4edf7">                    diag::warn_implicit_function_decl}) {</text><rect x="60" y="402" width="828" height="22" rx="0" fill="#403627" /><rect x="60" y="402" width="3" height="22" rx="0" fill="#eac17a" /><text x="75" y="418" font-family="Menlo,Consolas,monospace" font-size="11" fill="#eac17a" text-anchor="middle">−</text><text x="105" y="418" text-anchor="end" font-family="Menlo,Consolas,monospace" font-size="12" fill="#8093a5">629</text><text x="121" y="418" xml:space="preserve" font-family="Menlo,Consolas,monospace" font-size="15.00" fill="#e4edf7">      OverriddenSeverity.try_emplace(</text><rect x="60" y="424" width="828" height="22" rx="0" fill="#403627" /><rect x="60" y="424" width="3" height="22" rx="0" fill="#eac17a" /><text x="75" y="440" font-family="Menlo,Consolas,monospace" font-size="11" fill="#eac17a" text-anchor="middle">−</text><text x="105" y="440" text-anchor="end" font-family="Menlo,Consolas,monospace" font-size="12" fill="#8093a5">630</text><text x="121" y="440" xml:space="preserve" font-family="Menlo,Consolas,monospace" font-size="15.00" fill="#e4edf7">          ID, Clang-&gt;getDiagnostics().getDiagnosticLevel(ID, SourceLocation()));</text><rect x="60" y="446" width="828" height="22" rx="0" fill="#403627" /><rect x="60" y="446" width="3" height="22" rx="0" fill="#eac17a" /><text x="75" y="462" font-family="Menlo,Consolas,monospace" font-size="11" fill="#eac17a" text-anchor="middle">−</text><text x="105" y="462" text-anchor="end" font-family="Menlo,Consolas,monospace" font-size="12" fill="#8093a5">631</text><text x="121" y="462" xml:space="preserve" font-family="Menlo,Consolas,monospace" font-size="15.00" fill="#e4edf7">      Clang-&gt;getDiagnostics().setSeverity(ID, diag::Severity::Error,</text><rect x="60" y="468" width="828" height="22" rx="0" fill="#403627" /><rect x="60" y="468" width="3" height="22" rx="0" fill="#eac17a" /><text x="75" y="484" font-family="Menlo,Consolas,monospace" font-size="11" fill="#eac17a" text-anchor="middle">−</text><text x="105" y="484" text-anchor="end" font-family="Menlo,Consolas,monospace" font-size="12" fill="#8093a5">632</text><text x="121" y="484" xml:space="preserve" font-family="Menlo,Consolas,monospace" font-size="15.00" fill="#e4edf7">                                          SourceLocation());</text><rect x="60" y="490" width="828" height="22" rx="0" fill="#203044" /><rect x="60" y="490" width="3" height="22" rx="0" fill="#718397" /><text x="105" y="506" text-anchor="end" font-family="Menlo,Consolas,monospace" font-size="12" fill="#8093a5">633</text><text x="121" y="506" xml:space="preserve" font-family="Menlo,Consolas,monospace" font-size="15.00" fill="#e4edf7">    }</text><rect x="60" y="512" width="828" height="22" rx="0" fill="#403627" /><rect x="60" y="512" width="3" height="22" rx="0" fill="#eac17a" /><text x="75" y="528" font-family="Menlo,Consolas,monospace" font-size="11" fill="#eac17a" text-anchor="middle">−</text><text x="105" y="528" text-anchor="end" font-family="Menlo,Consolas,monospace" font-size="12" fill="#8093a5">634</text><text x="121" y="528" xml:space="preserve" font-family="Menlo,Consolas,monospace" font-size="15.00" fill="#e4edf7"></text><rect x="60" y="534" width="828" height="22" rx="0" fill="#403627" /><rect x="60" y="534" width="3" height="22" rx="0" fill="#eac17a" /><text x="75" y="550" font-family="Menlo,Consolas,monospace" font-size="11" fill="#eac17a" text-anchor="middle">−</text><text x="105" y="550" text-anchor="end" font-family="Menlo,Consolas,monospace" font-size="12" fill="#8093a5">635</text><text x="121" y="550" xml:space="preserve" font-family="Menlo,Consolas,monospace" font-size="15.00" fill="#e4edf7">    ASTDiags.setLevelAdjuster([&amp;](DiagnosticsEngine::Level DiagLevel,</text><rect x="60" y="556" width="828" height="22" rx="0" fill="#403627" /><rect x="60" y="556" width="3" height="22" rx="0" fill="#eac17a" /><text x="75" y="572" font-family="Menlo,Consolas,monospace" font-size="11" fill="#eac17a" text-anchor="middle">−</text><text x="105" y="572" text-anchor="end" font-family="Menlo,Consolas,monospace" font-size="12" fill="#8093a5">636</text><text x="121" y="572" xml:space="preserve" font-family="Menlo,Consolas,monospace" font-size="15.00" fill="#e4edf7">                                  <tspan fill="#98bfff">const</tspan> clang::Diagnostic &amp;Info) {</text><rect x="60" y="578" width="828" height="22" rx="0" fill="#403627" /><rect x="60" y="578" width="3" height="22" rx="0" fill="#eac17a" /><text x="75" y="594" font-family="Menlo,Consolas,monospace" font-size="11" fill="#eac17a" text-anchor="middle">−</text><text x="105" y="594" text-anchor="end" font-family="Menlo,Consolas,monospace" font-size="12" fill="#8093a5">637</text><text x="121" y="594" xml:space="preserve" font-family="Menlo,Consolas,monospace" font-size="15.00" fill="#e4edf7">      <tspan fill="#98bfff">auto</tspan> It = OverriddenSeverity.find(Info.getID());</text><rect x="60" y="600" width="828" height="22" rx="0" fill="#403627" /><rect x="60" y="600" width="3" height="22" rx="0" fill="#eac17a" /><text x="75" y="616" font-family="Menlo,Consolas,monospace" font-size="11" fill="#eac17a" text-anchor="middle">−</text><text x="105" y="616" text-anchor="end" font-family="Menlo,Consolas,monospace" font-size="12" fill="#8093a5">638</text><text x="121" y="616" xml:space="preserve" font-family="Menlo,Consolas,monospace" font-size="15.00" fill="#e4edf7">      <tspan fill="#98bfff">if</tspan> (It != OverriddenSeverity.end())</text><rect x="60" y="622" width="828" height="22" rx="0" fill="#403627" /><rect x="60" y="622" width="3" height="22" rx="0" fill="#eac17a" /><text x="75" y="638" font-family="Menlo,Consolas,monospace" font-size="11" fill="#eac17a" text-anchor="middle">−</text><text x="105" y="638" text-anchor="end" font-family="Menlo,Consolas,monospace" font-size="12" fill="#8093a5">639</text><text x="121" y="638" xml:space="preserve" font-family="Menlo,Consolas,monospace" font-size="15.00" fill="#e4edf7">        DiagLevel = It-&gt;second;</text><text x="121" y="660" font-family="Arial,Helvetica,sans-serif" font-size="12" fill="#879aaf" font-style="italic">··· intervening lines omitted ···</text><rect x="60" y="666" width="828" height="22" rx="0" fill="#403627" /><rect x="60" y="666" width="3" height="22" rx="0" fill="#eac17a" /><text x="75" y="682" font-family="Menlo,Consolas,monospace" font-size="11" fill="#eac17a" text-anchor="middle">−</text><text x="105" y="682" text-anchor="end" font-family="Menlo,Consolas,monospace" font-size="12" fill="#8093a5">702</text><text x="121" y="682" xml:space="preserve" font-family="Menlo,Consolas,monospace" font-size="15.00" fill="#e4edf7">      FixIncludes.emplace(Filename, Inserter, *Inputs.Index,</text><rect x="60" y="688" width="828" height="22" rx="0" fill="#403627" /><rect x="60" y="688" width="3" height="22" rx="0" fill="#eac17a" /><text x="75" y="704" font-family="Menlo,Consolas,monospace" font-size="11" fill="#eac17a" text-anchor="middle">−</text><text x="105" y="704" text-anchor="end" font-family="Menlo,Consolas,monospace" font-size="12" fill="#8093a5">703</text><text x="121" y="704" xml:space="preserve" font-family="Menlo,Consolas,monospace" font-size="15.00" fill="#e4edf7">                          /*IndexRequestLimit=*/5, Directive);</text><rect x="60" y="710" width="828" height="22" rx="0" fill="#403627" /><rect x="60" y="710" width="3" height="22" rx="0" fill="#eac17a" /><text x="75" y="726" font-family="Menlo,Consolas,monospace" font-size="11" fill="#eac17a" text-anchor="middle">−</text><text x="105" y="726" text-anchor="end" font-family="Menlo,Consolas,monospace" font-size="12" fill="#8093a5">704</text><text x="121" y="726" xml:space="preserve" font-family="Menlo,Consolas,monospace" font-size="15.00" fill="#e4edf7">      ASTDiags.contributeFixes([&amp;FixIncludes](DiagnosticsEngine::Level DiagLevl,</text><rect x="60" y="732" width="828" height="22" rx="0" fill="#403627" /><rect x="60" y="732" width="3" height="22" rx="0" fill="#eac17a" /><text x="75" y="748" font-family="Menlo,Consolas,monospace" font-size="11" fill="#eac17a" text-anchor="middle">−</text><text x="105" y="748" text-anchor="end" font-family="Menlo,Consolas,monospace" font-size="12" fill="#8093a5">705</text><text x="121" y="748" xml:space="preserve" font-family="Menlo,Consolas,monospace" font-size="15.00" fill="#e4edf7">                                              <tspan fill="#98bfff">const</tspan> clang::Diagnostic &amp;Info) {</text><rect x="60" y="754" width="828" height="22" rx="0" fill="#403627" /><rect x="60" y="754" width="3" height="22" rx="0" fill="#eac17a" /><text x="75" y="770" font-family="Menlo,Consolas,monospace" font-size="11" fill="#eac17a" text-anchor="middle">−</text><text x="105" y="770" text-anchor="end" font-family="Menlo,Consolas,monospace" font-size="12" fill="#8093a5">706</text><text x="121" y="770" xml:space="preserve" font-family="Menlo,Consolas,monospace" font-size="15.00" fill="#e4edf7">        <tspan fill="#98bfff">return</tspan> FixIncludes-&gt;fix(DiagLevl, Info);</text><rect x="60" y="776" width="828" height="22" rx="0" fill="#403627" /><rect x="60" y="776" width="3" height="22" rx="0" fill="#eac17a" /><text x="75" y="792" font-family="Menlo,Consolas,monospace" font-size="11" fill="#eac17a" text-anchor="middle">−</text><text x="105" y="792" text-anchor="end" font-family="Menlo,Consolas,monospace" font-size="12" fill="#8093a5">707</text><text x="121" y="792" xml:space="preserve" font-family="Menlo,Consolas,monospace" font-size="15.00" fill="#e4edf7">      });</text><rect x="60" y="798" width="828" height="22" rx="0" fill="#403627" /><rect x="60" y="798" width="3" height="22" rx="0" fill="#eac17a" /><text x="75" y="814" font-family="Menlo,Consolas,monospace" font-size="11" fill="#eac17a" text-anchor="middle">−</text><text x="105" y="814" text-anchor="end" font-family="Menlo,Consolas,monospace" font-size="12" fill="#8093a5">708</text><text x="121" y="814" xml:space="preserve" font-family="Menlo,Consolas,monospace" font-size="15.00" fill="#e4edf7">      Clang-&gt;setExternalSemaSource(FixIncludes-&gt;unresolvedNameRecorder());</text><text x="121" y="836" font-family="Arial,Helvetica,sans-serif" font-size="12" fill="#879aaf" font-style="italic">··· intervening lines omitted ···</text><rect x="60" y="842" width="828" height="22" rx="0" fill="#203044" /><rect x="60" y="842" width="3" height="22" rx="0" fill="#718397" /><text x="105" y="858" text-anchor="end" font-family="Menlo,Consolas,monospace" font-size="12" fill="#8093a5">776</text><text x="121" y="858" xml:space="preserve" font-family="Menlo,Consolas,monospace" font-size="15.00" fill="#e4edf7">  std::vector&lt;Decl *&gt; ParsedDecls = Action-&gt;takeTopLevelDecls();</text><rect x="60" y="864" width="828" height="22" rx="0" fill="#203044" /><rect x="60" y="864" width="3" height="22" rx="0" fill="#718397" /><text x="105" y="880" text-anchor="end" font-family="Menlo,Consolas,monospace" font-size="12" fill="#8093a5">777</text><text x="121" y="880" xml:space="preserve" font-family="Menlo,Consolas,monospace" font-size="15.00" fill="#e4edf7">  <tspan fill="#93a9a9">// AST traversals should exclude the preamble, to avoid performance cliffs.</tspan></text><rect x="60" y="886" width="828" height="22" rx="0" fill="#203044" /><rect x="60" y="886" width="3" height="22" rx="0" fill="#718397" /><text x="105" y="902" text-anchor="end" font-family="Menlo,Consolas,monospace" font-size="12" fill="#8093a5">778</text><text x="121" y="902" xml:space="preserve" font-family="Menlo,Consolas,monospace" font-size="15.00" fill="#e4edf7">  Clang-&gt;getASTContext().setTraversalScope(ParsedDecls);</text><rect x="60" y="908" width="828" height="22" rx="0" fill="#403627" /><rect x="60" y="908" width="3" height="22" rx="0" fill="#eac17a" /><text x="75" y="924" font-family="Menlo,Consolas,monospace" font-size="11" fill="#eac17a" text-anchor="middle">−</text><text x="105" y="924" text-anchor="end" font-family="Menlo,Consolas,monospace" font-size="12" fill="#8093a5">779</text><text x="121" y="924" xml:space="preserve" font-family="Menlo,Consolas,monospace" font-size="15.00" fill="#e4edf7">  <tspan fill="#98bfff">if</tspan> (!CTChecks.empty()) {</text><rect x="60" y="930" width="828" height="22" rx="0" fill="#403627" /><rect x="60" y="930" width="3" height="22" rx="0" fill="#eac17a" /><text x="75" y="946" font-family="Menlo,Consolas,monospace" font-size="11" fill="#eac17a" text-anchor="middle">−</text><text x="105" y="946" text-anchor="end" font-family="Menlo,Consolas,monospace" font-size="12" fill="#8093a5">780</text><text x="121" y="946" xml:space="preserve" font-family="Menlo,Consolas,monospace" font-size="15.00" fill="#e4edf7">    <tspan fill="#93a9a9">// Run the AST-dependent part of the clang-tidy checks.</tspan></text><rect x="60" y="952" width="828" height="22" rx="0" fill="#403627" /><rect x="60" y="952" width="3" height="22" rx="0" fill="#eac17a" /><text x="75" y="968" font-family="Menlo,Consolas,monospace" font-size="11" fill="#eac17a" text-anchor="middle">−</text><text x="105" y="968" text-anchor="end" font-family="Menlo,Consolas,monospace" font-size="12" fill="#8093a5">781</text><text x="121" y="968" xml:space="preserve" font-family="Menlo,Consolas,monospace" font-size="15.00" fill="#e4edf7">    <tspan fill="#93a9a9">// (The preprocessor part ran already, via PPCallbacks).</tspan></text><rect x="60" y="974" width="828" height="22" rx="0" fill="#403627" /><rect x="60" y="974" width="3" height="22" rx="0" fill="#eac17a" /><text x="75" y="990" font-family="Menlo,Consolas,monospace" font-size="11" fill="#eac17a" text-anchor="middle">−</text><text x="105" y="990" text-anchor="end" font-family="Menlo,Consolas,monospace" font-size="12" fill="#8093a5">782</text><text x="121" y="990" xml:space="preserve" font-family="Menlo,Consolas,monospace" font-size="15.00" fill="#e4edf7">    trace::Span Tracer(<tspan fill="#f4d795">&quot;ClangTidyMatch&quot;</tspan>);</text><rect x="60" y="996" width="828" height="22" rx="0" fill="#403627" /><rect x="60" y="996" width="3" height="22" rx="0" fill="#eac17a" /><text x="75" y="1012" font-family="Menlo,Consolas,monospace" font-size="11" fill="#eac17a" text-anchor="middle">−</text><text x="105" y="1012" text-anchor="end" font-family="Menlo,Consolas,monospace" font-size="12" fill="#8093a5">783</text><text x="121" y="1012" xml:space="preserve" font-family="Menlo,Consolas,monospace" font-size="15.00" fill="#e4edf7">    CTFinder.matchAST(Clang-&gt;getASTContext());</text><rect x="60" y="1018" width="828" height="22" rx="0" fill="#403627" /><rect x="60" y="1018" width="3" height="22" rx="0" fill="#eac17a" /><text x="75" y="1034" font-family="Menlo,Consolas,monospace" font-size="11" fill="#eac17a" text-anchor="middle">−</text><text x="105" y="1034" text-anchor="end" font-family="Menlo,Consolas,monospace" font-size="12" fill="#8093a5">784</text><text x="121" y="1034" xml:space="preserve" font-family="Menlo,Consolas,monospace" font-size="15.00" fill="#e4edf7">  }</text><rect x="60" y="1040" width="828" height="22" rx="0" fill="#203044" /><rect x="60" y="1040" width="3" height="22" rx="0" fill="#718397" /><text x="105" y="1056" text-anchor="end" font-family="Menlo,Consolas,monospace" font-size="12" fill="#8093a5">785</text><text x="121" y="1056" xml:space="preserve" font-family="Menlo,Consolas,monospace" font-size="15.00" fill="#e4edf7">  <tspan fill="#98bfff">for</tspan> (<tspan fill="#98bfff">const</tspan> <tspan fill="#98bfff">auto</tspan> &amp;L : ASTListeners)</text><rect x="60" y="1062" width="828" height="22" rx="0" fill="#203044" /><rect x="60" y="1062" width="3" height="22" rx="0" fill="#718397" /><text x="105" y="1078" text-anchor="end" font-family="Menlo,Consolas,monospace" font-size="12" fill="#8093a5">786</text><text x="121" y="1078" xml:space="preserve" font-family="Menlo,Consolas,monospace" font-size="15.00" fill="#e4edf7">    L-&gt;afterExecute(*Clang);</text><rect x="60" y="1084" width="828" height="22" rx="0" fill="#203044" /><rect x="60" y="1084" width="3" height="22" rx="0" fill="#718397" /><text x="105" y="1100" text-anchor="end" font-family="Menlo,Consolas,monospace" font-size="12" fill="#8093a5">787</text><text x="121" y="1100" xml:space="preserve" font-family="Menlo,Consolas,monospace" font-size="15.00" fill="#e4edf7"></text><rect x="1020" y="225" width="852" height="905" rx="12" fill="#142131" /><rect x="1020" y="225" width="852" height="40" rx="12" fill="#203044" /><rect x="1020" y="248" width="852" height="17" rx="0" fill="#203044" /><text x="1040" y="251" font-family="Arial,Helvetica,sans-serif" font-size="13" fill="#68d6bd" font-weight="700" letter-spacing="1.3">AFTER  /  c109083b09c6</text><text x="1039" y="301" font-family="Arial,Helvetica,sans-serif" font-size="15" fill="#c6d5e2" font-weight="600">ParsedAST.cpp</text><rect x="1032" y="314" width="828" height="22" rx="0" fill="#153e3c" /><rect x="1032" y="314" width="3" height="22" rx="0" fill="#68d6bd" /><text x="1047" y="330" font-family="Menlo,Consolas,monospace" font-size="11" fill="#68d6bd" text-anchor="middle">+</text><text x="1077" y="330" text-anchor="end" font-family="Menlo,Consolas,monospace" font-size="12" fill="#8093a5">398</text><text x="1093" y="330" xml:space="preserve" font-family="Menlo,Consolas,monospace" font-size="15.00" fill="#e4edf7">  <tspan fill="#98bfff">for</tspan> (<tspan fill="#98bfff">auto</tspan> ID : {diag::ext_implicit_function_decl_c99,</text><rect x="1032" y="336" width="828" height="22" rx="0" fill="#153e3c" /><rect x="1032" y="336" width="3" height="22" rx="0" fill="#68d6bd" /><text x="1047" y="352" font-family="Menlo,Consolas,monospace" font-size="11" fill="#68d6bd" text-anchor="middle">+</text><text x="1077" y="352" text-anchor="end" font-family="Menlo,Consolas,monospace" font-size="12" fill="#8093a5">399</text><text x="1093" y="352" xml:space="preserve" font-family="Menlo,Consolas,monospace" font-size="15.00" fill="#e4edf7">                  diag::ext_implicit_lib_function_decl,</text><rect x="1032" y="358" width="828" height="22" rx="0" fill="#153e3c" /><rect x="1032" y="358" width="3" height="22" rx="0" fill="#68d6bd" /><text x="1047" y="374" font-family="Menlo,Consolas,monospace" font-size="11" fill="#68d6bd" text-anchor="middle">+</text><text x="1077" y="374" text-anchor="end" font-family="Menlo,Consolas,monospace" font-size="12" fill="#8093a5">400</text><text x="1093" y="374" xml:space="preserve" font-family="Menlo,Consolas,monospace" font-size="15.00" fill="#e4edf7">                  diag::ext_implicit_lib_function_decl_c99,</text><rect x="1032" y="380" width="828" height="22" rx="0" fill="#153e3c" /><rect x="1032" y="380" width="3" height="22" rx="0" fill="#68d6bd" /><text x="1047" y="396" font-family="Menlo,Consolas,monospace" font-size="11" fill="#68d6bd" text-anchor="middle">+</text><text x="1077" y="396" text-anchor="end" font-family="Menlo,Consolas,monospace" font-size="12" fill="#8093a5">401</text><text x="1093" y="396" xml:space="preserve" font-family="Menlo,Consolas,monospace" font-size="15.00" fill="#e4edf7">                  diag::warn_implicit_function_decl}) {</text><rect x="1032" y="402" width="828" height="22" rx="0" fill="#153e3c" /><rect x="1032" y="402" width="3" height="22" rx="0" fill="#68d6bd" /><text x="1047" y="418" font-family="Menlo,Consolas,monospace" font-size="11" fill="#68d6bd" text-anchor="middle">+</text><text x="1077" y="418" text-anchor="end" font-family="Menlo,Consolas,monospace" font-size="12" fill="#8093a5">402</text><text x="1093" y="418" xml:space="preserve" font-family="Menlo,Consolas,monospace" font-size="15.00" fill="#e4edf7">    OverriddenSeverity.try_emplace(</text><rect x="1032" y="424" width="828" height="22" rx="0" fill="#153e3c" /><rect x="1032" y="424" width="3" height="22" rx="0" fill="#68d6bd" /><text x="1047" y="440" font-family="Menlo,Consolas,monospace" font-size="11" fill="#68d6bd" text-anchor="middle">+</text><text x="1077" y="440" text-anchor="end" font-family="Menlo,Consolas,monospace" font-size="12" fill="#8093a5">403</text><text x="1093" y="440" xml:space="preserve" font-family="Menlo,Consolas,monospace" font-size="15.00" fill="#e4edf7">        ID, Clang-&gt;getDiagnostics().getDiagnosticLevel(ID, SourceLocation()));</text><rect x="1032" y="446" width="828" height="22" rx="0" fill="#153e3c" /><rect x="1032" y="446" width="3" height="22" rx="0" fill="#68d6bd" /><text x="1047" y="462" font-family="Menlo,Consolas,monospace" font-size="11" fill="#68d6bd" text-anchor="middle">+</text><text x="1077" y="462" text-anchor="end" font-family="Menlo,Consolas,monospace" font-size="12" fill="#8093a5">404</text><text x="1093" y="462" xml:space="preserve" font-family="Menlo,Consolas,monospace" font-size="15.00" fill="#e4edf7">    Clang-&gt;getDiagnostics().setSeverity(ID, diag::Severity::Error,</text><rect x="1032" y="468" width="828" height="22" rx="0" fill="#153e3c" /><rect x="1032" y="468" width="3" height="22" rx="0" fill="#68d6bd" /><text x="1047" y="484" font-family="Menlo,Consolas,monospace" font-size="11" fill="#68d6bd" text-anchor="middle">+</text><text x="1077" y="484" text-anchor="end" font-family="Menlo,Consolas,monospace" font-size="12" fill="#8093a5">405</text><text x="1093" y="484" xml:space="preserve" font-family="Menlo,Consolas,monospace" font-size="15.00" fill="#e4edf7">                                        SourceLocation());</text><rect x="1032" y="490" width="828" height="22" rx="0" fill="#153e3c" /><rect x="1032" y="490" width="3" height="22" rx="0" fill="#68d6bd" /><text x="1047" y="506" font-family="Menlo,Consolas,monospace" font-size="11" fill="#68d6bd" text-anchor="middle">+</text><text x="1077" y="506" text-anchor="end" font-family="Menlo,Consolas,monospace" font-size="12" fill="#8093a5">406</text><text x="1093" y="506" xml:space="preserve" font-family="Menlo,Consolas,monospace" font-size="15.00" fill="#e4edf7">  }</text><rect x="1032" y="512" width="828" height="22" rx="0" fill="#153e3c" /><rect x="1032" y="512" width="3" height="22" rx="0" fill="#68d6bd" /><text x="1047" y="528" font-family="Menlo,Consolas,monospace" font-size="11" fill="#68d6bd" text-anchor="middle">+</text><text x="1077" y="528" text-anchor="end" font-family="Menlo,Consolas,monospace" font-size="12" fill="#8093a5">407</text><text x="1093" y="528" xml:space="preserve" font-family="Menlo,Consolas,monospace" font-size="15.00" fill="#e4edf7">  ASTDiags.setLevelAdjuster(</text><rect x="1032" y="534" width="828" height="22" rx="0" fill="#153e3c" /><rect x="1032" y="534" width="3" height="22" rx="0" fill="#68d6bd" /><text x="1047" y="550" font-family="Menlo,Consolas,monospace" font-size="11" fill="#68d6bd" text-anchor="middle">+</text><text x="1077" y="550" text-anchor="end" font-family="Menlo,Consolas,monospace" font-size="12" fill="#8093a5">408</text><text x="1093" y="550" xml:space="preserve" font-family="Menlo,Consolas,monospace" font-size="15.00" fill="#e4edf7">      [&amp;](DiagnosticsEngine::Level Level, <tspan fill="#98bfff">const</tspan> clang::Diagnostic &amp;Info) {</text><rect x="1032" y="556" width="828" height="22" rx="0" fill="#153e3c" /><rect x="1032" y="556" width="3" height="22" rx="0" fill="#68d6bd" /><text x="1047" y="572" font-family="Menlo,Consolas,monospace" font-size="11" fill="#68d6bd" text-anchor="middle">+</text><text x="1077" y="572" text-anchor="end" font-family="Menlo,Consolas,monospace" font-size="12" fill="#8093a5">409</text><text x="1093" y="572" xml:space="preserve" font-family="Menlo,Consolas,monospace" font-size="15.00" fill="#e4edf7">        <tspan fill="#98bfff">auto</tspan> It = OverriddenSeverity.find(Info.getID());</text><rect x="1032" y="578" width="828" height="22" rx="0" fill="#153e3c" /><rect x="1032" y="578" width="3" height="22" rx="0" fill="#68d6bd" /><text x="1047" y="594" font-family="Menlo,Consolas,monospace" font-size="11" fill="#68d6bd" text-anchor="middle">+</text><text x="1077" y="594" text-anchor="end" font-family="Menlo,Consolas,monospace" font-size="12" fill="#8093a5">410</text><text x="1093" y="594" xml:space="preserve" font-family="Menlo,Consolas,monospace" font-size="15.00" fill="#e4edf7">        <tspan fill="#98bfff">return</tspan> It == OverriddenSeverity.end() ? Level : It-&gt;second;</text><rect x="1032" y="600" width="828" height="22" rx="0" fill="#153e3c" /><rect x="1032" y="600" width="3" height="22" rx="0" fill="#68d6bd" /><text x="1047" y="616" font-family="Menlo,Consolas,monospace" font-size="11" fill="#68d6bd" text-anchor="middle">+</text><text x="1077" y="616" text-anchor="end" font-family="Menlo,Consolas,monospace" font-size="12" fill="#8093a5">411</text><text x="1093" y="616" xml:space="preserve" font-family="Menlo,Consolas,monospace" font-size="15.00" fill="#e4edf7">      });</text><text x="1093" y="638" font-family="Arial,Helvetica,sans-serif" font-size="12" fill="#879aaf" font-style="italic">··· intervening lines omitted ···</text><rect x="1032" y="644" width="828" height="22" rx="0" fill="#153e3c" /><rect x="1032" y="644" width="3" height="22" rx="0" fill="#68d6bd" /><text x="1047" y="660" font-family="Menlo,Consolas,monospace" font-size="11" fill="#68d6bd" text-anchor="middle">+</text><text x="1077" y="660" text-anchor="end" font-family="Menlo,Consolas,monospace" font-size="12" fill="#8093a5">433</text><text x="1093" y="660" xml:space="preserve" font-family="Menlo,Consolas,monospace" font-size="15.00" fill="#e4edf7">    FixIncludes.emplace(Filename, Inserter, *Inputs.Index,</text><rect x="1032" y="666" width="828" height="22" rx="0" fill="#153e3c" /><rect x="1032" y="666" width="3" height="22" rx="0" fill="#68d6bd" /><text x="1047" y="682" font-family="Menlo,Consolas,monospace" font-size="11" fill="#68d6bd" text-anchor="middle">+</text><text x="1077" y="682" text-anchor="end" font-family="Menlo,Consolas,monospace" font-size="12" fill="#8093a5">434</text><text x="1093" y="682" xml:space="preserve" font-family="Menlo,Consolas,monospace" font-size="15.00" fill="#e4edf7">                        /*IndexRequestLimit=*/5, Directive);</text><rect x="1032" y="688" width="828" height="22" rx="0" fill="#153e3c" /><rect x="1032" y="688" width="3" height="22" rx="0" fill="#68d6bd" /><text x="1047" y="704" font-family="Menlo,Consolas,monospace" font-size="11" fill="#68d6bd" text-anchor="middle">+</text><text x="1077" y="704" text-anchor="end" font-family="Menlo,Consolas,monospace" font-size="12" fill="#8093a5">435</text><text x="1093" y="704" xml:space="preserve" font-family="Menlo,Consolas,monospace" font-size="15.00" fill="#e4edf7">    ASTDiags.contributeFixes([&amp;FixIncludes](DiagnosticsEngine::Level Level,</text><rect x="1032" y="710" width="828" height="22" rx="0" fill="#153e3c" /><rect x="1032" y="710" width="3" height="22" rx="0" fill="#68d6bd" /><text x="1047" y="726" font-family="Menlo,Consolas,monospace" font-size="11" fill="#68d6bd" text-anchor="middle">+</text><text x="1077" y="726" text-anchor="end" font-family="Menlo,Consolas,monospace" font-size="12" fill="#8093a5">436</text><text x="1093" y="726" xml:space="preserve" font-family="Menlo,Consolas,monospace" font-size="15.00" fill="#e4edf7">                                            <tspan fill="#98bfff">const</tspan> clang::Diagnostic &amp;Info) {</text><rect x="1032" y="732" width="828" height="22" rx="0" fill="#153e3c" /><rect x="1032" y="732" width="3" height="22" rx="0" fill="#68d6bd" /><text x="1047" y="748" font-family="Menlo,Consolas,monospace" font-size="11" fill="#68d6bd" text-anchor="middle">+</text><text x="1077" y="748" text-anchor="end" font-family="Menlo,Consolas,monospace" font-size="12" fill="#8093a5">437</text><text x="1093" y="748" xml:space="preserve" font-family="Menlo,Consolas,monospace" font-size="15.00" fill="#e4edf7">      <tspan fill="#98bfff">return</tspan> FixIncludes-&gt;fix(Level, Info);</text><rect x="1032" y="754" width="828" height="22" rx="0" fill="#203044" /><rect x="1032" y="754" width="3" height="22" rx="0" fill="#718397" /><text x="1077" y="770" text-anchor="end" font-family="Menlo,Consolas,monospace" font-size="12" fill="#8093a5">438</text><text x="1093" y="770" xml:space="preserve" font-family="Menlo,Consolas,monospace" font-size="15.00" fill="#e4edf7">    });</text><rect x="1032" y="776" width="828" height="22" rx="0" fill="#153e3c" /><rect x="1032" y="776" width="3" height="22" rx="0" fill="#68d6bd" /><text x="1047" y="792" font-family="Menlo,Consolas,monospace" font-size="11" fill="#68d6bd" text-anchor="middle">+</text><text x="1077" y="792" text-anchor="end" font-family="Menlo,Consolas,monospace" font-size="12" fill="#8093a5">439</text><text x="1093" y="792" xml:space="preserve" font-family="Menlo,Consolas,monospace" font-size="15.00" fill="#e4edf7">    Clang-&gt;setExternalSemaSource(FixIncludes-&gt;unresolvedNameRecorder());</text><rect x="1032" y="798" width="828" height="22" rx="0" fill="#203044" /><rect x="1032" y="798" width="3" height="22" rx="0" fill="#718397" /><text x="1077" y="814" text-anchor="end" font-family="Menlo,Consolas,monospace" font-size="12" fill="#8093a5">440</text><text x="1093" y="814" xml:space="preserve" font-family="Menlo,Consolas,monospace" font-size="15.00" fill="#e4edf7">  }</text><text x="1093" y="836" font-family="Arial,Helvetica,sans-serif" font-size="12" fill="#879aaf" font-style="italic">··· intervening lines omitted ···</text><rect x="1032" y="842" width="828" height="22" rx="0" fill="#203044" /><rect x="1032" y="842" width="3" height="22" rx="0" fill="#718397" /><text x="1077" y="858" text-anchor="end" font-family="Menlo,Consolas,monospace" font-size="12" fill="#8093a5">503</text><text x="1093" y="858" xml:space="preserve" font-family="Menlo,Consolas,monospace" font-size="15.00" fill="#e4edf7">  syntax::TokenBuffer Tokens = std::move(CollectTokens).consume();</text><rect x="1032" y="864" width="828" height="22" rx="0" fill="#203044" /><rect x="1032" y="864" width="3" height="22" rx="0" fill="#718397" /><text x="1077" y="880" text-anchor="end" font-family="Menlo,Consolas,monospace" font-size="12" fill="#8093a5">504</text><text x="1093" y="880" xml:space="preserve" font-family="Menlo,Consolas,monospace" font-size="15.00" fill="#e4edf7">  <tspan fill="#93a9a9">// Makes SelectionTree build much faster.</tspan></text><rect x="1032" y="886" width="828" height="22" rx="0" fill="#203044" /><rect x="1032" y="886" width="3" height="22" rx="0" fill="#718397" /><text x="1077" y="902" text-anchor="end" font-family="Menlo,Consolas,monospace" font-size="12" fill="#8093a5">505</text><text x="1093" y="902" xml:space="preserve" font-family="Menlo,Consolas,monospace" font-size="15.00" fill="#e4edf7">  Tokens.indexExpandedTokens();</text><rect x="1032" y="908" width="828" height="22" rx="0" fill="#203044" /><rect x="1032" y="908" width="3" height="22" rx="0" fill="#718397" /><text x="1077" y="924" text-anchor="end" font-family="Menlo,Consolas,monospace" font-size="12" fill="#8093a5">506</text><text x="1093" y="924" xml:space="preserve" font-family="Menlo,Consolas,monospace" font-size="15.00" fill="#e4edf7">  std::vector&lt;Decl *&gt; ParsedDecls = Action-&gt;takeTopLevelDecls();</text><rect x="1032" y="930" width="828" height="22" rx="0" fill="#203044" /><rect x="1032" y="930" width="3" height="22" rx="0" fill="#718397" /><text x="1077" y="946" text-anchor="end" font-family="Menlo,Consolas,monospace" font-size="12" fill="#8093a5">507</text><text x="1093" y="946" xml:space="preserve" font-family="Menlo,Consolas,monospace" font-size="15.00" fill="#e4edf7">  <tspan fill="#93a9a9">// AST traversals should exclude the preamble, to avoid performance cliffs.</tspan></text><rect x="1032" y="952" width="828" height="22" rx="0" fill="#203044" /><rect x="1032" y="952" width="3" height="22" rx="0" fill="#718397" /><text x="1077" y="968" text-anchor="end" font-family="Menlo,Consolas,monospace" font-size="12" fill="#8093a5">508</text><text x="1093" y="968" xml:space="preserve" font-family="Menlo,Consolas,monospace" font-size="15.00" fill="#e4edf7">  Clang-&gt;getASTContext().setTraversalScope(ParsedDecls);</text><rect x="1032" y="974" width="828" height="22" rx="0" fill="#203044" /><rect x="1032" y="974" width="3" height="22" rx="0" fill="#718397" /><text x="1077" y="990" text-anchor="end" font-family="Menlo,Consolas,monospace" font-size="12" fill="#8093a5">509</text><text x="1093" y="990" xml:space="preserve" font-family="Menlo,Consolas,monospace" font-size="15.00" fill="#e4edf7">  <tspan fill="#98bfff">for</tspan> (<tspan fill="#98bfff">const</tspan> <tspan fill="#98bfff">auto</tspan> &amp;L : ASTListeners)</text><rect x="1032" y="996" width="828" height="22" rx="0" fill="#203044" /><rect x="1032" y="996" width="3" height="22" rx="0" fill="#718397" /><text x="1077" y="1012" text-anchor="end" font-family="Menlo,Consolas,monospace" font-size="12" fill="#8093a5">510</text><text x="1093" y="1012" xml:space="preserve" font-family="Menlo,Consolas,monospace" font-size="15.00" fill="#e4edf7">    L-&gt;afterExecute(*Clang);</text><path d="M 920 659.4 L 997 659.4 M 986 649.4 L 997 659.4 L 986 669.4" fill="none" stroke="#466a78" stroke-width="3" stroke-linecap="round" stroke-linejoin="round"/><text x="960" y="691.4" font-family="Arial,Helvetica,sans-serif" font-size="12" fill="#496272" text-anchor="middle" font-weight="700" letter-spacing="1">KEPT</text><text x="48" y="1171" font-family="Arial,Helvetica,sans-serif" font-size="18" fill="#354d5c" >Clang's typo-correction severity adjustment and include fixes remain in ParsedAST.</text><text x="48" y="1198" font-family="Arial,Helvetica,sans-serif" font-size="18" fill="#354d5c" >FeatureModule.h and Preamble.cpp are unchanged by this commit; the lifecycle interface was already on main.</text><text x="48" y="1282" font-family="Arial,Helvetica,sans-serif" font-size="13" fill="#657b87" >Colors follow git diff · unchanged context is gray · arrows map responsibilities, not entire excerpts</text></svg>
